Genre:Sci-Fi 
Language: English
IMDb:http://www.imdb.com/title/tt1300579/ 
Encoder: Tony2
...............................................
General
Complete name : Fireball 2009 Dvd.RiP.Mp4.FEEL-FREE
Format : MPEG-4
Format profile : Base Media
Codec ID : isom
File size : 858 MiB
Duration : 1h 29mn
Overall bit rate : 1 336 Kbps
................................................
Video
ID : 1
Format : MPEG-4 Visual
Format profile : Simple@L1
Format settings, BVOP : No
Format settings, QPel : No
Format settings, GMC : No warppoints
Format settings, Matrix : Default (H.263)
Codec ID : 20
Duration : 1h 29mn
Bit rate mode : Variable
Bit rate : 1 192 Kbps
Width : 704 pixels
Height : 304 pixels
Display aspect ratio : 2.35:1
Frame rate mode : Constant
Frame rate : 23.976 fps
Resolution : 24 bits
Colorimetry : 4:2:0
Scan type : Progressive
Bits/(Pixel*Frame) : 0.232
Stream size : 765 MiB (89%)
..................................................
Audio
ID : 2
Format : AAC
Format/Info : Advanced Audio Codec
Format version : Version 4
Format profile : LC
Format settings, SBR : No
Codec ID : 40
Duration : 1h 29mn
Bit rate mode : Variable
Bit rate : 139 Kbps
Channel(s) : 6 channels
Channel positions : Front: L C R, Rear: L R, LFE
Sampling rate : 48.0 KHz
Resolution : 16 bits
Stream size : 89.4 MiB (10%)
...................................................
Plot: 
Inspector Ava Williams investigates a prison fire to its source, a prisoner seeking revenge against those who put him behind bars
...................................................
Screenshots
 
http://postimg.com/image/17000/16942.jpg
 
http://postimg.com/image/17000/16943.jpg

...................................................